<svg width="530" height="512" viewBox="0 0 530 512" fill="none" xmlns="http://www.w3.org/2000/svg">
<path opacity="0.6" d="M294.35 438.27C294.354 440.869 293.846 443.443 292.854 445.845C291.862 448.248 290.406 450.431 288.57 452.27C286.734 454.109 284.553 455.568 282.153 456.564C279.752 457.56 277.179 458.072 274.58 458.072H152.58C145.536 458.072 138.78 460.87 133.799 465.852C128.818 470.833 126.02 477.59 126.02 484.635C126.02 491.68 128.818 498.436 133.799 503.417C138.78 508.399 145.536 511.197 152.58 511.197H503.07C510.114 511.197 516.87 508.399 521.851 503.417C526.832 498.436 529.63 491.68 529.63 484.635C529.63 477.59 526.832 470.833 521.851 465.852C516.87 460.87 510.114 458.072 503.07 458.072H371.84C366.597 458.072 361.568 455.989 357.861 452.281C354.153 448.573 352.07 443.544 352.07 438.3C352.07 433.056 354.153 428.027 357.861 424.319C361.568 420.611 366.597 418.528 371.84 418.528H377.42C384.464 418.528 391.22 415.729 396.201 410.748C401.182 405.766 403.98 399.01 403.98 391.965C403.98 384.92 401.182 378.164 396.201 373.182C391.22 368.201 384.464 365.402 377.42 365.402H250.09C247.456 365.462 244.836 364.994 242.385 364.027C239.934 363.059 237.701 361.612 235.817 359.77C233.933 357.927 232.436 355.727 231.414 353.298C230.392 350.869 229.865 348.26 229.865 345.625C229.865 342.99 230.392 340.381 231.414 337.952C232.436 335.523 233.933 333.323 235.817 331.481C237.701 329.638 239.934 328.191 242.385 327.224C244.836 326.257 247.456 325.789 250.09 325.848H437.58C444.624 325.848 451.38 323.05 456.361 318.068C461.342 313.087 464.14 306.33 464.14 299.285C464.14 292.241 461.342 285.484 456.361 280.503C451.38 275.521 444.624 272.723 437.58 272.723H87.0801C83.5922 272.723 80.1385 273.41 76.916 274.745C73.6936 276.08 70.7657 278.036 68.2994 280.503C65.833 282.969 63.8767 285.898 62.5419 289.12C61.2071 292.343 60.5201 295.797 60.5201 299.285C60.5201 302.774 61.2071 306.228 62.5419 309.451C63.8767 312.673 65.833 315.602 68.2994 318.068C70.7657 320.535 73.6936 322.491 76.916 323.826C80.1385 325.161 83.5922 325.848 87.0801 325.848H152.81C157.978 325.964 162.895 328.099 166.508 331.795C170.122 335.492 172.145 340.456 172.145 345.625C172.145 350.795 170.122 355.759 166.508 359.455C162.895 363.151 157.978 365.286 152.81 365.402H26.9301C19.886 365.402 13.1303 368.201 8.14937 373.182C3.1684 378.164 0.370117 384.92 0.370117 391.965C0.370117 399.01 3.1684 405.766 8.14937 410.748C13.1303 415.729 19.886 418.528 26.9301 418.528H274.59C279.833 418.528 284.862 420.611 288.57 424.319C292.277 428.027 294.36 433.056 294.36 438.3L294.35 438.27Z" fill="#F0ADFF"/>
<path d="M434.81 0.945312V257.262C434.495 294.864 419.338 330.819 392.64 357.298C365.942 383.776 329.865 398.633 292.265 398.633C254.665 398.633 218.588 383.776 191.89 357.298C165.191 330.819 150.035 294.864 149.72 257.262C149.72 220.808 149.72 170.423 180.64 124.908C220.99 64.7319 292.26 37.1991 292.26 37.1991V73.4728L434.81 0.945312Z" fill="#5D3068"/>
<path d="M358 241.551C374.34 241.551 387.59 227.549 387.59 210.237C387.59 192.926 374.29 178.914 358 178.914C341.71 178.914 328.4 192.916 328.4 210.237C328.4 227.559 341.6 241.551 358 241.551Z" fill="#F9F6FF" stroke="#100C1A" stroke-width="2" stroke-miterlimit="10"/>
<path d="M358 222.469C364.38 222.469 369.56 216.989 369.56 210.238C369.56 203.487 364.33 198.047 358 198.047C351.67 198.047 346.44 203.527 346.44 210.288C346.44 217.049 351.56 222.469 358 222.469Z" fill="#100C1A"/>
<path d="M362.89 205.105C363.765 205.155 364.636 204.941 365.388 204.491C366.141 204.041 366.741 203.375 367.111 202.579C367.481 201.784 367.603 200.896 367.463 200.03C367.322 199.164 366.925 198.361 366.323 197.723C365.72 197.086 364.94 196.644 364.084 196.455C363.228 196.265 362.334 196.338 361.519 196.662C360.705 196.987 360.006 197.548 359.514 198.275C359.022 199.001 358.759 199.858 358.76 200.735C358.744 201.293 358.838 201.849 359.037 202.371C359.236 202.893 359.535 203.37 359.919 203.776C360.303 204.182 360.762 204.508 361.272 204.736C361.782 204.964 362.331 205.09 362.89 205.105Z" fill="#F9F6FF"/>
<path d="M366.4 208.947C366.614 208.961 366.827 208.91 367.012 208.801C367.197 208.692 367.345 208.531 367.437 208.337C367.529 208.143 367.56 207.926 367.527 207.714C367.494 207.502 367.398 207.305 367.252 207.148C367.105 206.991 366.915 206.882 366.706 206.835C366.497 206.788 366.278 206.804 366.078 206.883C365.879 206.961 365.707 207.098 365.586 207.275C365.465 207.452 365.4 207.662 365.4 207.876C365.39 208.014 365.409 208.151 365.455 208.281C365.501 208.41 365.573 208.529 365.667 208.629C365.761 208.73 365.874 208.81 366 208.864C366.126 208.919 366.262 208.947 366.4 208.947Z" fill="#F9F6FF"/>
<path d="M275.42 245.259C282.105 245.261 288.641 243.28 294.201 239.567C299.761 235.854 304.094 230.575 306.654 224.399C309.214 218.222 309.885 211.425 308.582 204.867C307.279 198.309 304.06 192.285 299.334 187.557C294.607 182.828 288.584 179.608 282.028 178.303C275.471 176.997 268.674 177.666 262.497 180.225C256.321 182.783 251.041 187.115 247.327 192.675C243.612 198.234 241.63 204.77 241.63 211.456C241.63 220.419 245.19 229.016 251.526 235.355C257.863 241.694 266.457 245.257 275.42 245.259Z" fill="#F9F6FF" stroke="#100C1A" stroke-width="2" stroke-miterlimit="10"/>
<path d="M275.42 224.661C278.03 224.661 280.583 223.886 282.753 222.436C284.924 220.985 286.616 218.923 287.615 216.511C288.614 214.099 288.875 211.445 288.366 208.884C287.857 206.323 286.6 203.971 284.754 202.124C282.907 200.278 280.555 199.021 277.995 198.511C275.434 198.002 272.78 198.264 270.368 199.263C267.956 200.262 265.895 201.954 264.444 204.125C262.994 206.296 262.22 208.848 262.22 211.459C262.22 214.96 263.61 218.318 266.086 220.794C268.561 223.27 271.919 224.661 275.42 224.661Z" fill="#100C1A"/>
<path d="M281.06 205.925C281.993 205.925 282.906 205.648 283.682 205.13C284.458 204.611 285.063 203.874 285.421 203.011C285.778 202.149 285.871 201.2 285.689 200.284C285.507 199.368 285.058 198.527 284.397 197.867C283.737 197.207 282.896 196.757 281.981 196.575C281.065 196.393 280.116 196.486 279.254 196.844C278.391 197.201 277.654 197.806 277.135 198.582C276.617 199.359 276.34 200.271 276.34 201.205C276.339 201.825 276.46 202.44 276.696 203.013C276.933 203.586 277.281 204.107 277.719 204.546C278.158 204.984 278.679 205.332 279.252 205.569C279.825 205.805 280.44 205.927 281.06 205.925Z" fill="#F9F6FF"/>
<path d="M285.08 210.046C285.307 210.044 285.528 209.975 285.716 209.848C285.904 209.72 286.05 209.54 286.135 209.329C286.221 209.119 286.242 208.888 286.197 208.666C286.151 208.443 286.041 208.239 285.88 208.079C285.718 207.92 285.513 207.811 285.291 207.767C285.068 207.724 284.837 207.747 284.628 207.835C284.418 207.922 284.239 208.069 284.113 208.258C283.987 208.447 283.92 208.669 283.92 208.896C283.92 209.048 283.95 209.198 284.008 209.339C284.067 209.479 284.152 209.606 284.26 209.713C284.368 209.82 284.496 209.904 284.637 209.962C284.777 210.019 284.928 210.048 285.08 210.046Z" fill="#F9F6FF"/>
<path d="M402.14 170.093L354.46 145.601C354.46 145.601 391.2 121.418 402.14 170.093Z" fill="#100C1A"/>
<path d="M233.66 160.713L291.66 143.321C291.66 143.321 254.39 110.848 233.66 160.713Z" fill="#100C1A"/>
<path d="M289.35 291.406L337.7 295.296C337.7 295.296 316.64 263.783 289.35 291.406Z" fill="#100C1A"/>
<path d="M237.06 391.727H222.51V479.646H237.06V391.727Z" fill="white"/>
<path d="M318.13 315.437L289.2 362.992L271.89 391.435H186.51L142 315.357L186.52 239.289H271.9L318.13 315.437Z" fill="#D42329" stroke="white" stroke-width="3" stroke-miterlimit="10"/>
<path d="M192 248.891H266.6L307 315.428L266.6 381.834H192L153.1 315.358L192 248.891Z" stroke="white" stroke-width="5" stroke-miterlimit="10"/>
<path d="M193.76 302.178V298.438H179.15V331.991H193.76V328.201H182.76V316.849H192.66V313.309H182.76V302.178H193.76Z" fill="white"/>
<path d="M207.38 318.057C209.357 317.69 211.11 316.558 212.26 314.907C213.466 312.796 214.051 310.386 213.947 307.956C213.843 305.526 213.053 303.176 211.67 301.176C210.16 299.355 207.92 298.445 204.98 298.445H195.89V331.989H199.46V318.297H203.17L209.87 331.989H213.87L206.87 318.167L207.34 318.067L207.38 318.057ZM199.47 315.057V302.466H204.64C205.436 302.404 206.237 302.526 206.979 302.823C207.721 303.119 208.385 303.582 208.92 304.176C209.89 305.514 210.37 307.146 210.28 308.796C210.28 312.977 208.38 315.087 204.65 315.087H199.47V315.057Z" fill="white"/>
<path d="M215 332.559V332.709H215.08L215 332.559Z" fill="white"/>
<path d="M227.28 318.057C229.258 317.692 231.012 316.559 232.16 314.907C233.367 312.796 233.952 310.386 233.847 307.956C233.743 305.526 232.953 303.176 231.57 301.176C230.06 299.355 227.82 298.445 224.88 298.445H215.79V331.989H219.36V318.297H223.07L229.77 331.989H233.77L226.77 318.167L227.24 318.067L227.28 318.057ZM219.37 315.057V302.466H224.54C225.337 302.404 226.137 302.526 226.879 302.823C227.621 303.119 228.285 303.582 228.82 304.176C229.79 305.514 230.27 307.146 230.18 308.796C230.18 312.977 228.28 315.087 224.55 315.087H219.37V315.057Z" fill="white"/>
<path d="M215 332.559V332.709H215.08L215 332.559Z" fill="white"/>
<path d="M258.92 306.249C257.945 303.841 256.343 301.738 254.28 300.158C253.337 299.468 252.296 298.926 251.19 298.548C250.082 298.192 248.925 298.009 247.76 298.008C245.398 297.991 243.094 298.746 241.2 300.158C239.134 301.739 237.526 303.841 236.54 306.249C234.247 311.968 234.247 318.352 236.54 324.071C237.531 326.484 239.138 328.594 241.2 330.191C243.089 331.616 245.395 332.378 247.76 332.362C250.114 332.379 252.406 331.615 254.28 330.191C256.339 328.596 257.94 326.485 258.92 324.071C261.187 318.346 261.187 311.973 258.92 306.249ZM255.78 321.851C255.137 323.616 254.015 325.167 252.54 326.331C251.165 327.37 249.484 327.926 247.76 327.911C246.018 327.926 244.318 327.371 242.92 326.331C241.438 325.17 240.309 323.618 239.66 321.851C238.126 317.525 238.126 312.804 239.66 308.479C240.307 306.71 241.436 305.158 242.92 303.999C244.311 302.953 246.01 302.397 247.75 302.419C249.478 302.398 251.164 302.954 252.54 303.999C254.012 305.165 255.133 306.716 255.78 308.479C257.314 312.804 257.314 317.525 255.78 321.851Z" fill="white"/>
<path d="M274.39 318.057C276.369 317.692 278.123 316.559 279.27 314.907C280.477 312.796 281.062 310.386 280.958 307.956C280.853 305.526 280.064 303.176 278.68 301.176C277.18 299.355 274.93 298.445 271.99 298.445H262.9V331.989H266.47V318.297H270.18L276.88 331.989H280.88L273.88 318.167L274.35 318.067L274.39 318.057ZM266.48 315.057V302.466H271.65C272.447 302.404 273.247 302.526 273.989 302.823C274.731 303.119 275.395 303.582 275.93 304.176C276.901 305.514 277.381 307.146 277.29 308.796C277.29 312.977 275.39 315.087 271.66 315.087H266.48V315.057Z" fill="white"/>
<path d="M230.09 417.75L245.21 479.076C247.535 488.015 253.288 495.677 261.222 500.403C269.157 505.129 278.633 506.539 287.599 504.326C296.565 502.114 304.299 496.457 309.124 488.583C313.95 480.708 315.479 471.249 313.38 462.255C311.23 453.534 308.25 441.492 298.17 432.432C284.97 420.43 266.31 418.05 266.31 418.05L268.45 426.721L230.09 417.8V417.75Z" fill="#5D3068"/>
<path d="M231.41 399.598L214 463.785C211.245 473.045 204.979 480.86 196.539 485.561C188.099 490.262 178.156 491.475 168.833 488.942C159.511 486.408 151.549 480.329 146.649 472.002C141.749 463.676 140.3 453.763 142.61 444.383C145.09 435.262 148.52 422.64 159.36 413.379C173.55 401.058 193.27 399.008 193.27 399.008L190.78 408.069L231.41 399.608V399.598Z" fill="#5D3068"/>
</svg>
