<svg width="87" height="36" viewBox="0 0 87 36" fill="none" xmlns="http://www.w3.org/2000/svg">
<path d="M10.1047 8.67969C8.54684 8.67969 7.1033 9.02271 5.83128 9.69445C4.95945 10.1518 4.14478 10.7807 3.40158 11.5667V9.15134H0V35.092H3.40158V26.1164C4.18766 26.8739 5.03091 27.4885 5.94563 27.9315C7.23194 28.5747 8.64688 28.8891 10.1762 28.8891C12.8917 28.8891 15.2357 27.8886 17.1508 25.9306C19.066 23.9725 20.0379 21.5428 20.0379 18.7415C20.0379 15.9831 19.0517 13.5963 17.1223 11.6382C15.1785 9.66586 12.8203 8.67969 10.1047 8.67969ZM16.6077 18.813C16.6077 19.9992 16.2933 21.1569 15.693 22.2431C15.0784 23.3294 14.2638 24.1869 13.2347 24.7872C12.22 25.3875 11.1052 25.6876 9.94749 25.6876C8.76122 25.6876 7.61783 25.3875 6.5459 24.7872C5.48827 24.1869 4.65931 23.3722 4.08762 22.3575C3.51592 21.3427 3.23008 20.1708 3.23008 18.8844C3.23008 16.8978 3.85894 15.2971 5.15955 13.9679C6.46015 12.6387 8.00372 11.9955 9.90461 11.9955C11.1052 11.9955 12.2343 12.2957 13.249 12.8816C14.2638 13.4676 15.0784 14.3109 15.693 15.3828C16.2933 16.4547 16.6077 17.6124 16.6077 18.813Z" fill="white"/>
<path d="M39.3039 11.5525C38.575 10.7807 37.7604 10.1518 36.8885 9.69445C35.6022 9.02271 34.1587 8.67969 32.5865 8.67969C29.8567 8.67969 27.4984 9.68015 25.569 11.6382C23.6395 13.5963 22.6533 15.9831 22.6533 18.7415C22.6533 21.5571 23.6252 23.9725 25.5404 25.9306C27.4413 27.8886 29.7995 28.8891 32.5151 28.8891C34.0443 28.8891 35.4736 28.5604 36.7599 27.9315C37.6746 27.4885 38.5321 26.8739 39.3039 26.1164V28.4317H42.6626V9.15134H39.3039V11.5525ZM37.5174 13.9536C38.818 15.2828 39.4469 16.8835 39.4469 18.8702C39.4469 20.1565 39.161 21.3284 38.5893 22.3432C38.0176 23.358 37.2029 24.1726 36.131 24.7729C35.0734 25.3732 33.93 25.6733 32.7437 25.6733C31.5718 25.6733 30.457 25.3732 29.4422 24.7729C28.4131 24.1726 27.5842 23.3151 26.9839 22.2289C26.3693 21.1426 26.0692 19.985 26.0692 18.7987C26.0692 17.5981 26.3693 16.4547 26.9839 15.3685C27.5842 14.2966 28.4131 13.4533 29.4279 12.8674C30.4427 12.2814 31.5718 11.9812 32.7723 11.9812C34.6732 11.9812 36.2311 12.6244 37.5174 13.9536Z" fill="white"/>
<path d="M60.4563 9.15234L54.725 22.4014L48.808 9.15234H45.1777L52.8956 26.5176L49.151 35.093H52.7813L64.1008 9.15234H60.4563Z" fill="white"/>
<path d="M76.865 5.99433V3.45029L73.3777 5.47981C69.3472 7.82376 66.8604 12.1829 66.8604 16.8994C66.8604 16.8994 66.8746 19.4577 66.9175 19.8151C67.4606 24.9889 71.8198 29.005 77.0794 28.8907C82.5534 28.7764 86.8697 24.1028 86.8697 18.543V0.90625L76.865 5.99433ZM76.865 25.875C73.0632 25.875 69.9761 22.7879 69.9761 18.9861C69.9761 15.1843 73.0632 12.0972 76.865 12.0972C80.6668 12.0972 83.7539 15.1843 83.7539 18.9861C83.7539 22.7879 80.6668 25.875 76.865 25.875Z" fill="white"/>
</svg>
