<svg width="207" height="69" viewBox="0 0 207 69" fill="none" xmlns="http://www.w3.org/2000/svg">
<path d="M104.5 9.30475L104.348 8.82858L104.317 8.83836L104.288 8.85197L104.5 9.30475ZM0.499878 31.8047L6.23897 31.1753L2.82436 26.5198L0.499878 31.8047ZM205.494 68.3819C208.005 52.3094 205.991 29.9663 191.632 15.3543C177.237 0.706449 150.624 -5.99584 104.348 8.82858L104.653 9.78091C150.776 -4.99467 176.913 1.80304 190.918 16.0552C204.959 30.3432 206.995 52.3001 204.506 68.2276L205.494 68.3819ZM104.288 8.85197C97.3201 12.1162 92.5853 15.3756 89.643 18.5342C86.6956 21.6984 85.5222 24.7915 85.7595 27.6893C85.9961 30.5775 87.6254 33.1638 90.0603 35.3415C92.4961 37.52 95.7714 39.3216 99.3904 40.6491C106.616 43.2995 115.342 44.1052 121.734 42.1261C124.937 41.1343 127.6 39.4275 129.161 36.8529C130.727 34.2696 131.134 30.8942 129.982 26.6731L129.018 26.9362C130.116 30.9651 129.695 34.0429 128.306 36.3346C126.911 38.635 124.493 40.2251 121.438 41.1708C115.315 43.0667 106.822 42.3099 99.7347 39.7103C96.1974 38.4128 93.043 36.6675 90.7269 34.5961C88.4098 32.5237 86.965 30.157 86.7562 27.6077C86.5482 25.068 87.5584 22.2392 90.3747 19.2158C93.1961 16.187 97.805 12.9933 104.712 9.75752L104.288 8.85197ZM129.982 26.6731C127.74 18.4507 121.675 12.3567 113.157 8.3753C104.646 4.3968 93.6599 2.51136 81.4814 2.69774C57.124 3.07051 27.8753 11.7327 3.83317 28.7399L4.41068 29.5563C28.2865 12.6668 57.3387 4.06734 81.4967 3.69762C93.5761 3.51276 104.401 5.38587 112.734 9.28121C121.061 13.1736 126.872 19.0688 129.018 26.9362L129.982 26.6731Z" fill="#C7ADFF"/>
</svg>
