<svg width="191" height="55" viewBox="0 0 191 55" fill="none" xmlns="http://www.w3.org/2000/svg">
<path d="M58.7514 21.3008C49.1097 21.3008 42.249 28.3588 42.249 37.9571C42.249 47.5554 49.1632 54.4994 58.866 54.4994C65.6656 54.4994 71.7623 51.1453 74.2606 44.034H67.461C65.9483 47.1599 62.7548 48.7799 58.9195 48.7799C53.5715 48.7799 49.4459 45.5399 48.9264 39.6988H74.8947C75.5365 29.2259 69.0349 21.3008 58.7514 21.3008ZM49.2778 34.3749C50.378 30.0929 53.7472 26.9746 58.7514 26.9746C63.5723 26.9746 66.888 30.0397 67.8736 34.3749H49.2778Z" fill="white"/>
<path d="M107.846 22.6875H99.9467L93.0936 33.3354L86.0037 22.6875H78.1574L88.968 38.1345L77.5156 54.5019H85.423L92.8567 43.1086L100.588 54.5019H108.427L97.0435 38.2486L107.846 22.6875Z" fill="white"/>
<path d="M120.635 9.96094H114.011V54.4995H120.635V9.96094Z" fill="white"/>
<path d="M143.876 21.3008C134.235 21.3008 127.374 28.3588 127.374 37.9571C127.374 47.5554 134.288 54.4994 143.991 54.4994C150.79 54.4994 156.887 51.1453 159.385 44.034H152.586C151.073 47.1599 147.88 48.7799 144.044 48.7799C138.696 48.7799 134.571 45.5399 134.051 39.6988H160.019C160.669 29.2259 154.16 21.3008 143.876 21.3008ZM134.403 34.3749C135.503 30.0929 138.88 26.9746 143.876 26.9746C148.697 26.9746 152.013 30.0397 152.998 34.3749H134.403Z" fill="white"/>
<path d="M189.839 46.861C187.341 47.728 185.071 48.4201 183.039 48.4201C178.914 48.4201 176.767 45.8722 176.767 41.248V28.1207H189.9V21.9905H176.767V13.3125L170.204 14.7576V21.9905H164.275V28.1207H170.204V41.5979C170.204 50.39 175.315 54.497 181.886 54.497C185.545 54.497 189.266 53.2269 191.008 52.1849L189.839 46.861Z" fill="white"/>
<path d="M27.8934 16.4392V30.5552H7.03622V16.4392L0.46582 14.0586V54.4977H7.03622V36.7994H27.8934V54.4977H34.4562V14.0586L27.8934 16.4392Z" fill="white"/>
<path d="M34.9224 7.01042L17.465 0.5L0 7.01042L17.465 13.3383L34.9224 7.01042Z" fill="#136EF6"/>
</svg>
