<svg width="285" height="53" viewBox="0 0 285 53" fill="none" xmlns="http://www.w3.org/2000/svg">
<g clip-path="url(#clip0_2295_5428)">
<path d="M37.6312 38.9345C44.4449 38.9345 49.9704 33.4483 49.9704 26.6826C49.9704 19.9169 44.4449 14.4307 37.6312 14.4307C30.8174 14.4307 25.292 19.9169 25.292 26.6826C25.292 33.4483 30.8174 38.9345 37.6312 38.9345Z" fill="#DC0000"/>
<path d="M58.8775 14.396C58.2086 15.5307 57.0385 16.1161 55.8651 16.1161C54.8731 16.1161 53.8781 15.6997 53.1765 14.8366C49.5201 10.3432 43.9553 7.4704 37.7192 7.4704C30.3731 7.4704 23.9344 11.4326 20.4776 17.3624L11.3442 32.8855L1.38816 52.4463C1.37606 52.4735 1.36396 52.5006 1.35187 52.5248C1.22787 52.745 0.991975 52.8899 0.722812 52.8899C0.323601 52.8899 0 52.567 0 52.1656C0 52.0933 0.0120973 52.0269 0.0302431 51.9605C0.039316 51.9303 0.048389 51.9001 0.0604863 51.876C0.0665347 51.8578 0.0725837 51.8428 0.0816566 51.8216C0.166337 51.5923 0.251018 51.3599 0.335699 51.1306C0.423404 50.8982 0.50506 50.6659 0.592765 50.4305C0.68047 50.1921 0.768174 49.9567 0.852854 49.7183C0.940558 49.4769 1.02827 49.2385 1.119 48.9971C1.2067 48.7496 1.29743 48.5082 1.38816 48.2637C1.47889 48.0163 1.56659 47.7749 1.66035 47.5244C1.7541 47.277 1.84483 47.0265 1.93556 46.776C2.02629 46.5256 2.12005 46.272 2.2138 46.0216C2.30453 45.7711 2.39828 45.5146 2.49203 45.2611C2.58579 45.0076 2.67652 44.7511 2.77632 44.4946C2.87007 44.2412 2.96383 43.9816 3.0606 43.7282C3.15436 43.4716 3.24811 43.2151 3.34489 42.9556C3.43864 42.6991 3.53844 42.4396 3.62917 42.1831C3.72293 41.9266 3.82273 41.664 3.91648 41.4075C4.01024 41.148 4.11004 40.8885 4.20379 40.6289C4.29754 40.3724 4.3913 40.1099 4.48808 39.8534C4.58183 39.5939 4.68164 39.3313 4.77539 39.0748C4.86914 38.8183 4.9629 38.5558 5.05967 38.2993C5.15343 38.0428 5.24718 37.7833 5.34396 37.5268C5.43771 37.2703 5.53147 37.0138 5.62824 36.7572C5.722 36.5007 5.81575 36.2442 5.91253 35.9877C6.00629 35.7372 6.09702 35.4807 6.19381 35.2242C6.28757 34.9738 6.3783 34.7203 6.47503 34.4668C6.56576 34.2163 6.6565 33.9628 6.75025 33.7154C6.84099 33.4679 6.93172 33.2174 7.02548 32.97C7.11319 32.7226 7.20393 32.4781 7.29466 32.2307C7.38237 31.9862 7.47305 31.7448 7.56378 31.5034C7.65149 31.265 7.7392 31.0236 7.82691 30.7852C7.91463 30.5468 7.99931 30.3114 8.08702 30.076C8.17171 29.8437 8.25639 29.6113 8.34108 29.3789C8.42571 29.1496 8.51039 28.9233 8.59205 28.6909C8.67674 28.4676 8.7584 28.2443 8.84006 28.018C8.9187 27.7976 9.00036 27.5774 9.08202 27.3541C9.16066 27.1398 9.23929 26.9225 9.32095 26.7082C9.39651 26.497 9.47515 26.2858 9.55378 26.0775C9.62939 25.8723 9.70501 25.6672 9.78062 25.4619C9.85623 25.2598 9.92882 25.0606 10.0014 24.8614C10.071 24.6653 10.1466 24.4722 10.2161 24.276C10.2857 24.0889 10.3582 23.8988 10.4278 23.7117C10.4943 23.5306 10.5609 23.3465 10.6304 23.1625C10.694 22.9874 10.7605 22.8094 10.824 22.6343C10.8845 22.4654 10.951 22.2964 11.0085 22.1274C11.069 21.9644 11.1295 21.8045 11.1869 21.6416C11.2444 21.4876 11.2989 21.3337 11.3563 21.1768C11.4107 21.029 11.4651 20.8811 11.5196 20.7332C11.571 20.5944 11.6224 20.4556 11.6738 20.3198C11.7222 20.187 11.7676 20.0573 11.819 19.9275C11.8644 19.8037 11.9097 19.68 11.9551 19.5563C12.0005 19.4446 12.0398 19.327 12.0821 19.2153C12.1184 19.1097 12.1608 19.0041 12.2001 18.9014C12.2334 18.8049 12.2697 18.7053 12.3029 18.6118C12.3332 18.5242 12.3664 18.4398 12.3997 18.3522C12.4238 18.2738 12.4541 18.1983 12.4843 18.1229C12.5055 18.0534 12.5327 17.9871 12.5569 17.9177C12.5781 17.8633 12.6023 17.806 12.6204 17.7487C12.7081 17.5042 12.8049 17.2598 12.9047 17.0184C12.9199 16.9792 12.935 16.9399 12.9531 16.9007C13.1074 16.5386 13.2677 16.1825 13.434 15.8264C13.5973 15.4884 13.7636 15.1535 13.9391 14.8276C14.1115 14.4986 14.2929 14.1757 14.4804 13.8528C14.6649 13.533 14.8615 13.2131 15.0611 12.9023C15.2607 12.5884 15.4663 12.2836 15.678 11.9788C15.8897 11.6771 16.1105 11.3783 16.3343 11.0826C16.5581 10.7869 16.791 10.4971 17.0239 10.2165C17.2598 9.92983 17.5017 9.65516 17.7497 9.37758C17.9947 9.10297 18.2487 8.83436 18.5057 8.57181C18.7628 8.30931 19.029 8.04676 19.2951 7.79626C19.5643 7.54279 19.8395 7.29835 20.1147 7.05391C20.3959 6.80947 20.6802 6.57412 20.9676 6.34779C21.2548 6.1154 21.5482 5.8921 21.8446 5.67182C22.144 5.45454 22.4495 5.24029 22.7549 5.03508C23.0634 4.82686 23.3749 4.6307 23.6894 4.43456C24.007 4.23841 24.3275 4.05131 24.6512 3.87024C24.9778 3.68918 25.3074 3.51415 25.6371 3.34818C25.9698 3.18221 26.3085 3.01925 26.6472 2.86837C26.989 2.71446 27.3337 2.56358 27.6785 2.42476C28.0293 2.28595 28.3771 2.15015 28.734 2.02642C29.0909 1.89968 29.4477 1.78199 29.8076 1.67033C30.1705 1.55868 30.5334 1.45306 30.8994 1.35649C31.2683 1.25993 31.6404 1.17241 32.0154 1.09093C32.3904 1.01248 32.7654 0.937029 33.1434 0.87064C33.5245 0.807273 33.9056 0.749934 34.2896 0.701651C34.6737 0.650352 35.0638 0.61112 35.451 0.577924C35.8411 0.544729 36.2312 0.520587 36.6244 0.505499C36.9903 0.493428 37.3593 0.484375 37.7253 0.484375C46.1449 0.484375 53.6634 4.36213 58.5989 10.4308C59.5033 11.5624 59.6092 13.1527 58.8682 14.4081L58.8775 14.396Z" fill="#DC0000"/>
<path d="M16.0793 38.9675C16.7477 37.8329 17.921 37.2474 19.0945 37.2474C20.0895 37.2474 21.0845 37.6638 21.7862 38.5269C25.4486 43.0203 31.0194 45.8932 37.2616 45.8932C44.6166 45.8932 51.0645 41.9309 54.5273 36.0011L63.6701 20.478L73.6411 0.917237C73.6533 0.890079 73.6649 0.862915 73.6771 0.838774C73.801 0.61848 74.0401 0.473633 74.3064 0.473633C74.7054 0.473633 75.0294 0.796525 75.0294 1.19788C75.0294 1.27031 75.0172 1.3367 75.0021 1.40309C74.9928 1.43326 74.984 1.46344 74.9747 1.48758C74.9689 1.50569 74.9596 1.52078 74.9538 1.5419C74.8689 1.77125 74.784 2.00361 74.6996 2.23296C74.6118 2.46532 74.5304 2.69768 74.4425 2.93307C74.3547 3.17147 74.2669 3.40685 74.1826 3.64525C74.0947 3.88666 74.0069 4.12506 73.9162 4.36648C73.8283 4.61393 73.7376 4.85535 73.6469 5.09978C73.5561 5.34723 73.4689 5.58865 73.3747 5.8391C73.281 6.08657 73.1903 6.33706 73.0966 6.5875C73.0059 6.838 72.9123 7.09147 72.8186 7.34191C72.7279 7.59241 72.6337 7.8489 72.54 8.10237C72.4464 8.3559 72.3556 8.6124 72.2556 8.86889C72.162 9.12236 72.0683 9.38189 71.9718 9.63541C71.8775 9.89191 71.7839 10.1514 71.6873 10.4079C71.5908 10.6644 71.4937 10.924 71.4 11.1804C71.3064 11.4369 71.2063 11.6995 71.1127 11.956C71.0191 12.2155 70.919 12.475 70.8254 12.7346C70.7317 12.9911 70.6381 13.2536 70.5409 13.5101C70.4444 13.7696 70.3473 14.0322 70.2536 14.2887C70.1571 14.5452 70.0663 14.8077 69.9663 15.0642C69.8727 15.3207 69.779 15.5803 69.6825 15.8368C69.5853 16.0933 69.4946 16.3528 69.398 16.6063C69.3044 16.8628 69.2102 17.1193 69.1136 17.3758C69.02 17.6263 68.9292 17.8828 68.8321 18.1393C68.7385 18.3898 68.6448 18.6433 68.5512 18.8967C68.4604 19.1472 68.3697 19.4007 68.2726 19.6482C68.1818 19.8956 68.0911 20.1461 67.9946 20.3935C67.9067 20.641 67.816 20.8854 67.7253 21.1329C67.638 21.3773 67.5473 21.6187 67.4566 21.8601C67.3687 22.0985 67.2809 22.3399 67.1931 22.5784C67.1052 22.8167 67.0209 23.0521 66.9331 23.2875C66.8482 23.5199 66.7638 23.7522 66.6789 23.9876C66.5946 24.2169 66.5097 24.4433 66.4282 24.6756C66.3433 24.8989 66.2619 25.1223 66.1799 25.3486C66.1013 25.5689 66.0164 25.7892 65.935 26.0125C65.8565 26.2267 65.778 26.444 65.6959 26.6583C65.6203 26.8696 65.5418 27.0807 65.4633 27.289C65.3877 27.4942 65.3121 27.6994 65.2365 27.9046C65.1608 28.1068 65.0881 28.306 65.0154 28.5051C64.9462 28.7013 64.8735 28.8944 64.8008 29.0905C64.7316 29.2777 64.6589 29.4678 64.5891 29.6549C64.5228 29.8359 64.4559 30.02 64.3867 30.2041C64.3233 30.3791 64.2564 30.5572 64.193 30.7322C64.1325 30.9012 64.0662 31.0702 64.0086 31.2391C63.9452 31.4021 63.8876 31.562 63.8301 31.725C63.7725 31.8789 63.7184 32.0328 63.6608 32.1898C63.6061 32.3376 63.552 32.4855 63.4974 32.6333C63.4462 32.7722 63.3944 32.911 63.3432 33.0468C63.295 33.1796 63.2467 33.3093 63.1978 33.4391C63.1525 33.5628 63.1071 33.6865 63.0617 33.8103C63.0164 33.9219 62.9774 34.0396 62.932 34.1512C62.8954 34.2569 62.8535 34.3625 62.814 34.4651C62.7808 34.5617 62.7442 34.6613 62.711 34.7548C62.6808 34.8423 62.6476 34.9268 62.6145 35.0143C62.59 35.0928 62.5598 35.1683 62.5295 35.2437C62.5086 35.3131 62.4813 35.3795 62.4568 35.4489C62.4359 35.5032 62.4115 35.5605 62.3934 35.6179C62.3056 35.8623 62.2091 36.1068 62.1061 36.3482C62.091 36.3874 62.0788 36.4266 62.0578 36.4658C61.9037 36.828 61.7432 37.1841 61.5739 37.5401C61.4105 37.8781 61.2441 38.2131 61.0662 38.539C60.8934 38.8679 60.7119 39.1908 60.5247 39.5137C60.3403 39.8336 60.1437 40.1535 59.9407 40.4643C59.7412 40.7782 59.5359 41.0829 59.3242 41.3877C59.1124 41.6895 58.8885 41.9882 58.6646 42.284C58.4407 42.5797 58.208 42.8694 57.9751 43.15C57.7392 43.4368 57.4972 43.7114 57.2492 43.989C57.0043 44.2636 56.7502 44.5322 56.4931 44.7947C56.2361 45.0572 55.9699 45.3198 55.7008 45.5703C55.4316 45.8238 55.1564 46.0682 54.8782 46.3126C54.5969 46.5571 54.3126 46.7924 54.0223 47.0188C53.735 47.2511 53.4386 47.4744 53.1452 47.6947C52.8428 47.912 52.5403 48.1263 52.2319 48.3315C51.9234 48.5397 51.6119 48.7358 51.2974 48.932C50.9798 49.1282 50.6592 49.3152 50.3326 49.4963C50.006 49.6774 49.6763 49.8524 49.3437 50.0184C49.011 50.1843 48.6723 50.3473 48.3336 50.4982C47.9918 50.6521 47.647 50.803 47.3023 50.9418C46.9514 51.0806 46.6036 51.2164 46.2468 51.3401C45.8899 51.4669 45.533 51.5846 45.1732 51.6962C44.8102 51.8079 44.4473 51.9135 44.0783 52.0101C43.7094 52.1066 43.3374 52.1941 42.9624 52.2756C42.5873 52.3541 42.2124 52.4295 41.8313 52.4959C41.4502 52.5593 41.0661 52.6166 40.685 52.6649C40.301 52.7162 39.9108 52.7555 39.5207 52.7887C39.1306 52.8218 38.7374 52.846 38.3473 52.861C37.9783 52.8731 37.6124 52.8822 37.2464 52.8822C28.8146 52.8822 21.2871 49.0044 16.3454 42.9358C15.4381 41.8042 15.3323 40.2169 16.0762 38.9584L16.0793 38.9675Z" fill="#DC0000"/>
<path d="M157.227 46.8429V44.9869H158.697V37.4986H157.227V35.6426H162.979C163.662 35.6426 164.252 35.7599 164.753 35.9946C165.265 36.2186 165.659 36.5439 165.936 36.9706C166.223 37.3866 166.367 37.888 166.367 38.4747V38.6347C166.367 39.1467 166.271 39.568 166.079 39.8987C165.887 40.2187 165.659 40.4694 165.392 40.6507C165.137 40.8214 164.892 40.9441 164.657 41.0188V41.3068C164.892 41.3708 165.148 41.4934 165.424 41.6748C165.701 41.8454 165.936 42.0961 166.128 42.4268C166.329 42.7574 166.431 43.1895 166.431 43.7228V43.8829C166.431 44.5015 166.287 45.0349 166 45.4829C165.712 45.9202 165.312 46.2563 164.801 46.4909C164.3 46.7256 163.714 46.8429 163.043 46.8429H157.227ZM160.806 44.9229H162.788C163.246 44.9229 163.613 44.8109 163.89 44.5869C164.178 44.3628 164.322 44.0428 164.322 43.6268V43.4668C164.322 43.0508 164.183 42.7308 163.906 42.5068C163.63 42.2828 163.257 42.1708 162.788 42.1708H160.806V44.9229ZM160.806 40.2507H162.756C163.193 40.2507 163.549 40.1387 163.826 39.9147C164.114 39.6907 164.258 39.3814 164.258 38.9867V38.8267C164.258 38.4214 164.119 38.112 163.842 37.8986C163.566 37.6746 163.203 37.5626 162.756 37.5626H160.806V40.2507Z" fill="#E6E8E6"/>
<path d="M168.158 46.8429V35.6426H170.267V44.9229H175.38V46.8429H168.158Z" fill="#E6E8E6"/>
<path d="M180.79 47.0663C179.384 47.0663 178.265 46.6823 177.435 45.9143C176.604 45.1356 176.188 44.0262 176.188 42.5862V39.8981C176.188 38.4581 176.604 37.354 177.435 36.586C178.265 35.8073 179.384 35.418 180.79 35.418C182.196 35.418 183.314 35.8073 184.146 36.586C184.977 37.354 185.392 38.4581 185.392 39.8981V42.5862C185.392 44.0262 184.977 45.1356 184.146 45.9143C183.314 46.6823 182.196 47.0663 180.79 47.0663ZM180.79 45.1782C181.578 45.1782 182.191 44.9489 182.627 44.4902C183.064 44.0316 183.282 43.4182 183.282 42.6502V39.8341C183.282 39.0661 183.064 38.4527 182.627 37.9941C182.191 37.5353 181.578 37.306 180.79 37.306C180.012 37.306 179.4 37.5353 178.952 37.9941C178.516 38.4527 178.297 39.0661 178.297 39.8341V42.6502C178.297 43.4182 178.516 44.0316 178.952 44.4902C179.4 44.9489 180.012 45.1782 180.79 45.1782Z" fill="#E6E8E6"/>
<path d="M191.492 47.0663C190.107 47.0663 189.01 46.6823 188.201 45.9143C187.391 45.1356 186.986 44.0262 186.986 42.5862V39.8981C186.986 38.4581 187.391 37.354 188.201 36.586C189.01 35.8073 190.107 35.418 191.492 35.418C192.867 35.418 193.926 35.7967 194.672 36.554C195.429 37.3007 195.807 38.3301 195.807 39.6421V39.7381H193.73V39.5781C193.73 38.9167 193.543 38.3727 193.17 37.9461C192.808 37.5194 192.249 37.306 191.492 37.306C190.746 37.306 190.161 37.5353 189.734 37.9941C189.309 38.4527 189.095 39.0768 189.095 39.8661V42.6182C189.095 43.3969 189.309 44.0209 189.734 44.4902C190.161 44.9489 190.746 45.1782 191.492 45.1782C192.249 45.1782 192.808 44.9649 193.17 44.5382C193.543 44.1009 193.73 43.5569 193.73 42.9062V42.6182H195.807V42.8422C195.807 44.1542 195.429 45.189 194.672 45.9463C193.926 46.693 192.867 47.0663 191.492 47.0663Z" fill="#E6E8E6"/>
<path d="M197.525 46.8429V35.6426H199.634V40.0907H199.922L203.549 35.6426H206.25L201.584 41.1627L206.409 46.8429H203.629L199.922 42.2988H199.634V46.8429H197.525Z" fill="#E6E8E6"/>
<path d="M211.294 47.0663C209.909 47.0663 208.812 46.6823 208.003 45.9143C207.193 45.1356 206.788 44.0262 206.788 42.5862V39.8981C206.788 38.4581 207.193 37.354 208.003 36.586C208.812 35.8073 209.909 35.418 211.294 35.418C212.669 35.418 213.728 35.7967 214.474 36.554C215.23 37.3007 215.608 38.3301 215.608 39.6421V39.7381H213.531V39.5781C213.531 38.9167 213.345 38.3727 212.972 37.9461C212.61 37.5194 212.05 37.306 211.294 37.306C210.549 37.306 209.963 37.5353 209.537 37.9941C209.11 38.4527 208.897 39.0768 208.897 39.8661V42.6182C208.897 43.3969 209.11 44.0209 209.537 44.4902C209.963 44.9489 210.549 45.1782 211.294 45.1782C212.05 45.1782 212.61 44.9649 212.972 44.5382C213.345 44.1009 213.531 43.5569 213.531 42.9062V42.6182H215.608V42.8422C215.608 44.1542 215.23 45.189 214.474 45.9463C213.728 46.693 212.669 47.0663 211.294 47.0663Z" fill="#E6E8E6"/>
<path d="M217.327 46.8429V35.6426H219.437V40.2667H223.591V35.6426H225.7V46.8429H223.591V42.1868H219.437V46.8429H217.327Z" fill="#E6E8E6"/>
<path d="M227.046 46.8429L229.986 35.6426H233.662L236.602 46.8429H234.429L233.822 44.3788H229.827L229.22 46.8429H227.046ZM230.322 42.4268H233.326L231.968 36.9706H231.68L230.322 42.4268Z" fill="#E6E8E6"/>
<path d="M237.941 46.8429V35.6426H240.05V46.8429H237.941Z" fill="#E6E8E6"/>
<path d="M242.154 46.8429V35.6426H246.164L248.386 45.4029H248.673V35.6426H250.751V46.8429H246.74L244.519 37.0826H244.231V46.8429H242.154Z" fill="#E6E8E6"/>
<path d="M256.596 46.8429V44.9869H258.066V37.4986H256.596V35.6426H261.198C262.7 35.6426 263.84 36.0266 264.617 36.7946C265.406 37.552 265.8 38.6827 265.8 40.1867V42.2988C265.8 43.8028 265.406 44.9389 264.617 45.7069C263.84 46.4642 262.7 46.8429 261.198 46.8429H256.596ZM260.175 44.9229H261.23C262.082 44.9229 262.705 44.6989 263.099 44.2508C263.494 43.8028 263.691 43.1735 263.691 42.3628V40.1227C263.691 39.3014 263.494 38.672 263.099 38.2347C262.705 37.7866 262.082 37.5626 261.23 37.5626H260.175V44.9229Z" fill="#E6E8E6"/>
<path d="M267.558 46.8429V35.6426H274.748V37.5626H269.667V40.2347H274.301V42.1548H269.667V44.9229H274.844V46.8429H267.558Z" fill="#E6E8E6"/>
<path d="M278.483 46.8429L275.639 35.6426H277.812L280.177 45.4829H280.401L282.765 35.6426H284.938L282.094 46.8429H278.483Z" fill="#E6E8E6"/>
<path d="M84.3367 25.4869V6.10256H91.5076C92.6517 6.10256 93.6759 6.32405 94.5804 6.76716C95.5034 7.19174 96.2328 7.81021 96.7679 8.62251C97.303 9.4348 97.5706 10.4225 97.5706 11.5856V11.9178C97.5706 13.0809 97.2937 14.0778 96.74 14.9086C96.2049 15.7209 95.4761 16.3393 94.553 16.7639C93.6486 17.1886 92.6331 17.4009 91.5076 17.4009H86.1083V25.4869H84.3367ZM86.1083 15.7947H91.3139C92.6982 15.7947 93.787 15.4532 94.5804 14.7701C95.3929 14.087 95.7989 13.127 95.7989 11.8902V11.6132C95.7989 10.3579 95.4022 9.39788 94.6083 8.73328C93.833 8.05022 92.7349 7.70869 91.3139 7.70869H86.1083V15.7947ZM100.938 25.4869V6.10256H108.524C109.724 6.10256 110.775 6.30559 111.68 6.71177C112.603 7.11789 113.323 7.70869 113.839 8.48406C114.375 9.24097 114.643 10.164 114.643 11.2532V11.5302C114.643 12.8409 114.329 13.8747 113.701 14.6317C113.073 15.3701 112.335 15.8593 111.486 16.0993V16.4316C112.132 16.4501 112.677 16.6532 113.12 17.0409C113.563 17.4285 113.784 18.047 113.784 18.8962V25.4869H112.012V19.0901C112.012 18.4993 111.846 18.047 111.514 17.7331C111.201 17.4193 110.72 17.2624 110.075 17.2624H102.71V25.4869H100.938ZM102.71 15.6562H108.358C109.798 15.6562 110.904 15.324 111.68 14.6594C112.474 13.9763 112.87 13.0071 112.87 11.7517V11.6132C112.87 10.3579 112.483 9.39788 111.708 8.73328C110.951 8.05022 109.834 7.70869 108.358 7.70869H102.71V15.6562ZM125.242 25.8746C122.972 25.8746 121.163 25.21 119.816 23.8808C118.469 22.5331 117.795 20.567 117.795 17.9824V13.6071C117.795 11.0225 118.469 9.06555 119.816 7.73636C121.163 6.3887 122.972 5.71484 125.242 5.71484C127.513 5.71484 129.322 6.3887 130.669 7.73636C132.017 9.06555 132.69 11.0225 132.69 13.6071V17.9824C132.69 20.567 132.017 22.5331 130.669 23.8808C129.322 25.21 127.513 25.8746 125.242 25.8746ZM125.242 24.2685C127.051 24.2685 128.445 23.7239 129.423 22.6347C130.42 21.5454 130.918 20.0131 130.918 18.0378V13.5517C130.918 11.5763 130.42 10.044 129.423 8.95483C128.445 7.8656 127.051 7.32098 125.242 7.32098C123.452 7.32098 122.058 7.8656 121.062 8.95483C120.065 10.044 119.567 11.5763 119.567 13.5517V18.0378C119.567 20.0131 120.065 21.5454 121.062 22.6347C122.058 23.7239 123.452 24.2685 125.242 24.2685ZM135.061 25.4869V23.8808H137.83V7.70869H135.061V6.10256H142.426C144.954 6.10256 146.92 6.74869 148.323 8.04096C149.744 9.31483 150.455 11.3086 150.455 14.0224V17.5947C150.455 20.3085 149.744 22.3023 148.323 23.5762C146.92 24.85 144.954 25.4869 142.426 25.4869H135.061ZM139.602 23.8808H142.426C144.457 23.8808 146.007 23.3916 147.077 22.4131C148.148 21.4346 148.683 19.8562 148.683 17.6778V13.9393C148.683 11.7425 148.148 10.164 147.077 9.20405C146.007 8.22559 144.457 7.73636 142.426 7.73636H139.602V23.8808ZM161.311 25.8746C159.041 25.8746 157.223 25.21 155.857 23.8808C154.509 22.5331 153.836 20.567 153.836 17.9824V13.6071C153.836 11.0225 154.509 9.06555 155.857 7.73636C157.223 6.3887 159.041 5.71484 161.311 5.71484C163.563 5.71484 165.28 6.35178 166.461 7.62558C167.661 8.88098 168.26 10.5979 168.26 12.7763V12.9147H166.488V12.7209C166.488 11.1332 166.064 9.84092 165.215 8.84406C164.384 7.82867 163.083 7.32098 161.311 7.32098C159.521 7.32098 158.118 7.8656 157.103 8.95483C156.106 10.044 155.608 11.5763 155.608 13.5517V18.0378C155.608 20.0131 156.106 21.5454 157.103 22.6347C158.118 23.7239 159.521 24.2685 161.311 24.2685C163.083 24.2685 164.384 23.77 165.215 22.7731C166.064 21.7577 166.488 20.4562 166.488 18.8685V18.4531H168.26V18.8131C168.26 20.9916 167.661 22.7177 166.461 23.9916C165.28 25.2469 163.563 25.8746 161.311 25.8746ZM172.182 25.4869V6.10256H179.767C180.967 6.10256 182.02 6.30559 182.924 6.71177C183.847 7.11789 184.567 7.70869 185.084 8.48406C185.619 9.24097 185.886 10.164 185.886 11.2532V11.5302C185.886 12.8409 185.572 13.8747 184.945 14.6317C184.318 15.3701 183.579 15.8593 182.73 16.0993V16.4316C183.376 16.4501 183.92 16.6532 184.364 17.0409C184.807 17.4285 185.028 18.047 185.028 18.8962V25.4869H183.256V19.0901C183.256 18.4993 183.09 18.047 182.758 17.7331C182.444 17.4193 181.964 17.2624 181.318 17.2624H173.953V25.4869H172.182ZM173.953 15.6562H179.602C181.041 15.6562 182.149 15.324 182.924 14.6594C183.717 13.9763 184.115 13.0071 184.115 11.7517V11.6132C184.115 10.3579 183.727 9.39788 182.951 8.73328C182.195 8.05022 181.078 7.70869 179.602 7.70869H173.953V15.6562ZM189.648 25.4869V6.10256H201.359V7.70869H191.42V14.964H200.584V16.5701H191.42V23.8808H201.47V25.4869H189.648ZM203.751 25.4869L210.091 6.10256H213.247L219.587 25.4869H217.732L216.071 20.3362H207.267L205.606 25.4869H203.751ZM207.766 18.7301H215.573L211.835 7.15481H211.503L207.766 18.7301ZM225.397 25.4869V7.70869H218.919V6.10256H233.648V7.70869H227.169V25.4869H225.397ZM242.747 25.8746C240.477 25.8746 238.668 25.21 237.321 23.8808C235.974 22.5331 235.3 20.567 235.3 17.9824V13.6071C235.3 11.0225 235.974 9.06555 237.321 7.73636C238.668 6.3887 240.477 5.71484 242.747 5.71484C245.018 5.71484 246.827 6.3887 248.174 7.73636C249.522 9.06555 250.195 11.0225 250.195 13.6071V17.9824C250.195 20.567 249.522 22.5331 248.174 23.8808C246.827 25.21 245.018 25.8746 242.747 25.8746ZM242.747 24.2685C244.557 24.2685 245.95 23.7239 246.928 22.6347C247.925 21.5454 248.423 20.0131 248.423 18.0378V13.5517C248.423 11.5763 247.925 10.044 246.928 8.95483C245.95 7.8656 244.557 7.32098 242.747 7.32098C240.957 7.32098 239.563 7.8656 238.567 8.95483C237.57 10.044 237.072 11.5763 237.072 13.5517V18.0378C237.072 20.0131 237.57 21.5454 238.567 22.6347C239.563 23.7239 240.957 24.2685 242.747 24.2685ZM254.348 25.4869V6.10256H261.935C263.135 6.10256 264.187 6.30559 265.091 6.71177C266.014 7.11789 266.734 7.70869 267.25 8.48406C267.786 9.24097 268.053 10.164 268.053 11.2532V11.5302C268.053 12.8409 267.739 13.8747 267.112 14.6317C266.485 15.3701 265.746 15.8593 264.897 16.0993V16.4316C265.543 16.4501 266.088 16.6532 266.531 17.0409C266.973 17.4285 267.195 18.047 267.195 18.8962V25.4869H265.423V19.0901C265.423 18.4993 265.257 18.047 264.925 17.7331C264.611 17.4193 264.131 17.2624 263.485 17.2624H256.121V25.4869H254.348ZM256.121 15.6562H261.768C263.208 15.6562 264.316 15.324 265.091 14.6594C265.885 13.9763 266.281 13.0071 266.281 11.7517V11.6132C266.281 10.3579 265.894 9.39788 265.119 8.73328C264.362 8.05022 263.245 7.70869 261.768 7.70869H256.121V15.6562ZM278.155 25.8746C276.771 25.8746 275.534 25.6346 274.445 25.1546C273.356 24.6562 272.498 23.9085 271.87 22.9115C271.243 21.8962 270.929 20.6131 270.929 19.0624V18.5362H272.701V19.0624C272.701 20.8531 273.208 22.1824 274.223 23.05C275.257 23.8993 276.567 24.3238 278.155 24.3238C279.761 24.3238 280.997 23.9546 281.865 23.2162C282.732 22.4592 283.166 21.4993 283.166 20.3362C283.166 19.5608 282.972 18.9424 282.585 18.4809C282.216 18.0008 281.69 17.6224 281.007 17.3455C280.342 17.0501 279.567 16.7916 278.681 16.5701L276.909 16.127C275.857 15.8501 274.916 15.5085 274.085 15.1024C273.254 14.6778 272.599 14.1332 272.12 13.4686C271.639 12.7855 271.4 11.9178 271.4 10.8656C271.4 9.81326 271.667 8.89944 272.202 8.12407C272.756 7.3487 273.513 6.7579 274.473 6.35178C275.433 5.92714 276.549 5.71484 277.823 5.71484C279.096 5.71484 280.24 5.9364 281.256 6.37944C282.29 6.82254 283.102 7.47788 283.692 8.34557C284.301 9.19479 284.606 10.2656 284.606 11.5578V12.8594H282.834V11.5578C282.834 10.5425 282.612 9.72095 282.17 9.09327C281.727 8.4656 281.127 8.00404 280.37 7.70869C279.613 7.41329 278.764 7.26559 277.823 7.26559C276.475 7.26559 275.359 7.57945 274.473 8.20712C273.605 8.81633 273.171 9.70248 273.171 10.8656C273.171 11.6409 273.347 12.2594 273.698 12.7209C274.066 13.1824 274.574 13.5517 275.22 13.8286C275.885 14.1055 276.66 14.3547 277.546 14.5763L279.318 15.0194C280.333 15.2593 281.265 15.5825 282.114 15.9886C282.963 16.3762 283.646 16.9208 284.163 17.6224C284.679 18.3054 284.938 19.2101 284.938 20.3362C284.938 21.4624 284.652 22.4408 284.08 23.2715C283.526 24.1023 282.741 24.7485 281.727 25.21C280.711 25.6531 279.521 25.8746 278.155 25.8746Z" fill="#E6E8E6"/>
<path d="M150.247 40.0771H84.3367V42.4068H150.247V40.0771Z" fill="#DC0000"/>
</g>
<defs>
<clipPath id="clip0_2295_5428">
<rect width="285" height="53" fill="white"/>
</clipPath>
</defs>
</svg>
