<svg width="217" height="59" viewBox="0 0 217 59" fill="none" xmlns="http://www.w3.org/2000/svg">
<g clip-path="url(#clip0_2295_5461)">
<path d="M26.4267 40.4257V17.1201H37.6397V57.7069H26.8742V50.3347H26.4531C25.5406 52.7128 24.0228 54.6241 21.8994 56.0685C19.7937 57.5131 17.2229 58.2354 14.1872 58.2354C11.4849 58.2354 9.10715 57.6188 7.05407 56.3856C5.00099 55.1526 3.39537 53.3998 2.23722 51.1274C1.09662 48.8549 0.517548 46.1333 0.5 42.9624V17.1201H11.713V40.9542C11.7305 43.35 12.371 45.2437 13.6345 46.6354C14.8979 48.027 16.5913 48.7228 18.7145 48.7228C20.0657 48.7228 21.3291 48.4145 22.5048 47.798C23.6805 47.1638 24.6282 46.2302 25.3475 44.997C26.0845 43.7639 26.4442 42.2402 26.4267 40.4257Z" fill="#4147D5"/>
<path d="M57.0596 58.3681C53.9887 58.3681 51.2074 57.5754 48.7157 55.99C46.2413 54.387 44.2761 52.0352 42.8196 48.9348C41.3807 45.8168 40.6613 41.9942 40.6613 37.4669C40.6613 32.8164 41.407 28.9497 42.8986 25.8669C44.3901 22.7665 46.373 20.4501 48.8472 18.9176C51.3391 17.3673 54.0677 16.5923 57.0332 16.5923C59.2969 16.5923 61.1833 16.9798 62.6924 17.7549C64.219 18.5124 65.4473 19.4636 66.3774 20.6087C67.325 21.736 68.0444 22.8458 68.5358 23.938H68.8779V3.5918H80.0645V57.7075H69.0095V51.2073H68.5358C68.0094 52.3347 67.2635 53.4533 66.2984 54.5631C65.3509 55.6553 64.1137 56.5624 62.587 57.2847C61.078 58.007 59.2355 58.3681 57.0596 58.3681ZM60.613 49.4104C62.4203 49.4104 63.947 48.9172 65.1929 47.9307C66.4563 46.9266 67.4215 45.5262 68.0882 43.7294C68.7726 41.9326 69.1148 39.8275 69.1148 37.4141C69.1148 35.0007 68.7815 32.9045 68.1146 31.1253C67.4478 29.3461 66.4827 27.9721 65.2193 27.0031C63.9558 26.0343 62.4203 25.5498 60.613 25.5498C58.7704 25.5498 57.2175 26.0519 55.9541 27.0561C54.6906 28.0602 53.7343 29.4518 53.085 31.231C52.4358 33.0102 52.111 35.0712 52.111 37.4141C52.111 39.7746 52.4358 41.8622 53.085 43.6765C53.7518 45.4733 54.7082 46.8826 55.9541 47.9043C57.2175 48.9084 58.7704 49.4104 60.613 49.4104Z" fill="#4147D5"/>
<path d="M103.261 58.4998C99.1027 58.4998 95.5229 57.6541 92.5223 55.963C89.5391 54.2544 87.2403 51.841 85.6261 48.723C84.0117 45.5874 83.2045 41.8792 83.2045 37.5986C83.2045 33.4236 84.0117 29.7596 85.6261 26.6064C87.2403 23.4531 89.5129 20.9958 92.4433 19.2341C95.3913 17.4726 98.8482 16.5918 102.814 16.5918C105.481 16.5918 107.964 17.0234 110.263 17.8865C112.579 18.7321 114.597 20.0093 116.317 21.7179C118.054 23.4267 119.405 25.5759 120.37 28.1654C121.336 30.7373 121.818 33.7496 121.818 37.2023V40.2938H87.6791V33.3179H111.263C111.263 31.6974 110.912 30.2617 110.21 29.0109C109.508 27.7602 108.535 26.7825 107.289 26.0779C106.06 25.3556 104.63 24.9946 102.998 24.9946C101.296 24.9946 99.7871 25.3909 98.4709 26.1836C97.1724 26.9586 96.1546 28.0068 95.4177 29.328C94.6806 30.6316 94.3033 32.0849 94.2857 33.6879V40.3203C94.2857 42.3284 94.6543 44.0636 95.3913 45.5257C96.1459 46.9878 97.2075 48.1153 98.5761 48.908C99.9449 49.7007 101.568 50.097 103.446 50.097C104.692 50.097 105.832 49.9208 106.867 49.5686C107.903 49.2162 108.789 48.6878 109.526 47.9832C110.263 47.2785 110.825 46.4153 111.211 45.3937L121.582 46.0807C121.054 48.5821 119.975 50.7665 118.344 52.6337C116.729 54.4833 114.641 55.9279 112.079 56.9671C109.535 57.9889 106.595 58.4998 103.261 58.4998Z" fill="#4147D5"/>
<path d="M161.295 17.1201L147.16 57.7069H134.526L120.391 17.1201H132.236L140.633 46.1597H141.054L149.424 17.1201H161.295Z" fill="#4147D5"/>
<path d="M162.586 57.7073V17.1206C168.778 17.1206 173.799 22.0999 173.799 28.2423V57.7073H162.586ZM168.219 11.8886C166.551 11.8886 165.122 11.3337 163.928 10.2239C162.753 9.09651 162.165 7.7489 162.165 6.1811C162.165 4.6309 162.753 3.30091 163.928 2.19111C165.122 1.06371 166.551 0.5 168.219 0.5C169.886 0.5 171.307 1.06371 172.482 2.19111C173.676 3.30091 174.272 4.6309 174.272 6.1811C174.272 7.7489 173.676 9.09651 172.482 10.2239C171.307 11.3337 169.886 11.8886 168.219 11.8886Z" fill="#4147D5"/>
<path d="M196.6 58.4998C192.512 58.4998 188.976 57.6277 185.993 55.8838C183.027 54.1222 180.738 51.6736 179.123 48.538C177.509 45.3848 176.702 41.7295 176.702 37.5722C176.702 33.3796 177.509 29.7155 179.123 26.58C180.738 23.4267 183.027 20.9781 185.993 19.2341C188.976 17.4726 192.512 16.5918 196.6 16.5918C200.689 16.5918 204.216 17.4726 207.182 19.2341C210.165 20.9781 212.464 23.4267 214.078 26.58C215.693 29.7155 216.5 33.3796 216.5 37.5722C216.5 41.7295 215.693 45.3848 214.078 48.538C212.464 51.6736 210.165 54.1222 207.182 55.8838C204.216 57.6277 200.689 58.4998 196.6 58.4998ZM196.653 49.78C198.513 49.78 200.066 49.2515 201.312 48.1945C202.558 47.1199 203.497 45.6578 204.128 43.8082C204.777 41.9585 205.103 39.8535 205.103 37.4929C205.103 35.1324 204.777 33.0273 204.128 31.1776C203.497 29.328 202.558 27.8659 201.312 26.7913C200.066 25.7167 198.513 25.1795 196.653 25.1795C194.776 25.1795 193.197 25.7167 191.915 26.7913C190.651 27.8659 189.696 29.328 189.046 31.1776C188.415 33.0273 188.099 35.1324 188.099 37.4929C188.099 39.8535 188.415 41.9585 189.046 43.8082C189.696 45.6578 190.651 47.1199 191.915 48.1945C193.197 49.2515 194.776 49.78 196.653 49.78Z" fill="#4147D5"/>
</g>
<defs>
<clipPath id="clip0_2295_5461">
<rect width="216" height="58" fill="white" transform="translate(0.5 0.5)"/>
</clipPath>
</defs>
</svg>
