<svg width="243" height="75" viewBox="0 0 243 75" fill="none" xmlns="http://www.w3.org/2000/svg">
<path d="M137.262 49.1526H170.086V55.7694L143.783 55.786V59.9906H170.086V66.6073H137.262V49.1526ZM137.262 44.9508H170.086V38.3119H137.262V44.9508ZM118.517 66.6073H125.043V38.2981H118.517V66.6073ZM88.3878 58.187L73.6482 38.2981H64.9976L85.9756 66.6073H90.7999L111.778 38.2981H103.127L88.3878 58.187ZM233.852 38.2981L219.113 58.187L213.064 50.024L221.767 38.2981H213.092L198.352 58.187L183.613 38.2981H174.97L195.959 66.6073H200.786L208.741 55.8607L216.703 66.6073H221.522L242.5 38.2981H233.852ZM25.6986 46.3366L21.1843 59.1248L16.6591 46.3366C11.1348 45.2301 6.18656 42.1381 2.71911 37.6259C2.68335 37.5756 2.63074 37.5403 2.5712 37.5267C2.51166 37.5131 2.44928 37.5221 2.39581 37.552C2.34233 37.5819 2.30146 37.6307 2.28086 37.6891C2.26027 37.7476 2.26138 37.8116 2.28399 37.8693L15.4136 75H26.9523L40.0819 37.861C40.1028 37.8036 40.1027 37.7405 40.0815 37.6831C40.0604 37.6258 40.0197 37.5782 39.9668 37.5489C39.9139 37.5197 39.8525 37.5108 39.7937 37.5239C39.7349 37.537 39.6827 37.5713 39.6468 37.6203C36.177 42.135 31.226 45.2289 25.6986 46.3366ZM21.1843 1.49977e-05C17.7667 -0.00414738 14.4019 0.858152 11.3942 2.50896C12.5212 2.93688 13.5276 3.63993 14.3249 4.55626C15.1222 5.4726 15.6859 6.57415 15.9665 7.76406C16.2471 8.95397 16.2359 10.1958 15.9341 11.3803C15.6322 12.5648 15.0488 13.6557 14.2353 14.5571C13.4217 15.4585 12.4029 16.1428 11.2684 16.5497C10.1338 16.9567 8.91842 17.0738 7.72894 16.8909C6.53947 16.708 5.4124 16.2307 4.44684 15.5008C3.48127 14.7709 2.70681 13.8109 2.19153 12.7052C1.07152 15.3359 0.495743 18.1729 0.500024 21.0397C0.499594 21.9646 0.55773 22.8886 0.67407 23.8059C1.33107 28.8655 3.77342 33.5098 7.54635 36.874C11.3193 40.2382 16.1656 42.093 21.1829 42.093C26.2003 42.093 31.0466 40.2382 34.8195 36.874C38.5924 33.5098 41.0348 28.8655 41.6918 23.8059C41.8081 22.8886 41.8663 21.9646 41.8658 21.0397C41.8594 15.4622 39.6784 10.1149 35.8014 6.17066C31.9243 2.22645 26.6676 0.00733558 21.1843 1.49977e-05Z" fill="#6943FF"/>
</svg>
