<svg width="223" height="71" viewBox="0 0 223 71" fill="none" xmlns="http://www.w3.org/2000/svg">
<g clip-path="url(#clip0_2295_5398)">
<path d="M0 0.100426L15.68 0L28.73 51.4173L42.5891 0.100426H56.246L69.7004 51.4173L83.0538 0.100426H98.4304L78.8051 70.3974H61.304L49.0634 23.7001L37.1264 70.3974H19.6253L0 0.100426Z" fill="white"/>
<path d="M97.4551 44.6889C97.4551 39.3328 98.5341 34.6798 100.692 30.7299C102.918 26.7129 105.986 23.6333 109.898 21.4908C113.877 19.2815 118.463 18.1768 123.656 18.1768C128.916 18.1768 133.536 19.2145 137.515 21.29C141.562 23.2985 144.698 26.1773 146.923 29.9265C149.217 33.6088 150.397 37.9605 150.464 42.9816C150.464 44.7893 150.329 46.396 150.06 47.802H112.326V48.2037C112.663 51.9529 113.877 54.8987 115.968 57.041C118.058 59.1834 120.924 60.2546 124.566 60.2546C127.466 60.2546 129.861 59.6522 131.749 58.4469C133.705 57.175 134.986 55.3339 135.593 52.9237H149.655C149.116 56.3381 147.8 59.4177 145.709 62.1627C143.618 64.9076 140.853 67.0835 137.414 68.6903C133.974 70.2301 130.029 71 125.578 71C119.778 71 114.754 69.9288 110.505 67.7864C106.323 65.6441 103.086 62.5979 100.793 58.6478C98.5678 54.6308 97.4551 49.9778 97.4551 44.6889ZM136.2 38.5629C135.728 35.4163 134.413 33.0061 132.255 31.3325C130.164 29.5918 127.5 28.7214 124.263 28.7214C121.161 28.7214 118.53 29.6252 116.372 31.4329C114.282 33.1736 113.034 35.5502 112.629 38.5629H136.2Z" fill="white"/>
<path d="M189.923 18.7793V31.6336H184.258C180.211 31.6336 177.244 32.8386 175.355 35.2489C173.467 37.6591 172.523 40.9396 172.523 45.0904V70.3973H158.259V18.7793H171.208L172.523 26.5119C174.074 23.9679 175.996 22.0598 178.289 20.7877C180.583 19.4488 183.651 18.7793 187.494 18.7793H189.923Z" fill="white"/>
<path d="M196.294 4.31836H210.557V18.7795H222.394V30.7299H210.557V53.3254C210.557 55.1331 210.929 56.4386 211.671 57.2419C212.479 58.0454 213.795 58.447 215.616 58.447H223V70.3975H211.165C201.251 70.3975 196.294 65.4768 196.294 55.6351V4.31836Z" fill="white"/>
</g>
<defs>
<clipPath id="clip0_2295_5398">
<rect width="223" height="71" fill="white"/>
</clipPath>
</defs>
</svg>
