<svg width="25" height="11" viewBox="0 0 25 11" fill="none" xmlns="http://www.w3.org/2000/svg">
<path d="M2.90691 2.29785C2.45696 2.29785 2.04252 2.39901 1.67589 2.59761C1.42375 2.73447 1.18972 2.91968 0.977422 3.15026V2.4362H0V10.1005H0.977422V7.44802C1.20276 7.67265 1.44693 7.85265 1.70777 7.9858C2.07729 8.17398 2.48739 8.26919 2.92575 8.26919C3.70609 8.26919 4.3821 7.97464 4.93421 7.39372C5.48487 6.81355 5.76454 6.09874 5.76454 5.26864C5.76454 4.43855 5.48269 3.74903 4.92624 3.17035C4.36978 2.59166 3.69015 2.29785 2.90691 2.29785ZM4.7777 5.29096C4.7777 5.6413 4.68858 5.98196 4.51324 6.30255C4.3379 6.62313 4.10025 6.87528 3.80608 7.05305C3.51191 7.23083 3.19383 7.32083 2.86054 7.32083C2.52724 7.32083 2.19105 7.23082 1.88384 7.0538C1.57808 6.87751 1.34042 6.63652 1.17667 6.33751C1.0122 6.03626 0.928877 5.69113 0.928877 5.31104C0.928877 4.72492 1.11074 4.24962 1.48461 3.85763C1.85775 3.46638 2.3048 3.27671 2.85112 3.27671C3.19745 3.27671 3.52133 3.36522 3.81405 3.54002C4.10604 3.71482 4.34225 3.96399 4.51542 4.28012C4.68931 4.59772 4.7777 4.93839 4.7777 5.2917V5.29096Z" fill="#100C1A"/>
<path d="M11.3117 3.14877C11.1009 2.91894 10.8676 2.73447 10.6147 2.59761C10.2459 2.39827 9.82858 2.29785 9.37574 2.29785C8.59177 2.29785 7.91141 2.59166 7.35423 3.17035C6.79777 3.74903 6.5152 4.45491 6.5152 5.26864C6.5152 6.08238 6.79488 6.81355 7.34626 7.39372C7.89909 7.97464 8.5751 8.26919 9.35617 8.26919C9.79525 8.26919 10.2061 8.17398 10.5778 7.9858C10.8401 7.8534 11.0857 7.67265 11.3117 7.44727V8.1301H12.279V2.43546H11.3117V3.14729V3.14877ZM10.7988 3.85763C11.1734 4.24962 11.3552 4.72492 11.3552 5.31104C11.3552 5.69113 11.2719 6.03626 11.1074 6.3375C10.9437 6.63726 10.7067 6.87826 10.4017 7.05454C10.0952 7.23157 9.76699 7.32157 9.42645 7.32157C9.08591 7.32157 8.76928 7.23157 8.47511 7.0538C8.18022 6.87603 7.94257 6.62313 7.76723 6.30329C7.59188 5.98271 7.50276 5.64204 7.50276 5.2917C7.50276 4.94137 7.59116 4.59772 7.76505 4.28012C7.93895 3.96325 8.17515 3.71407 8.46787 3.54002C8.76059 3.36522 9.08519 3.27671 9.43225 3.27671C9.97929 3.27671 10.4263 3.46713 10.8002 3.85763H10.7988Z" fill="#100C1A"/>
<path d="M17.4016 2.43652L15.7481 6.3527L14.0462 2.43652H13.0021L15.2221 7.56884L14.1469 10.1008H15.1895L18.45 2.43652H17.4016Z" fill="#100C1A"/>
<path d="M22.1207 1.50399V0.751996L21.1165 1.35151C19.9572 2.04326 19.2421 3.3308 19.2421 4.72545C19.2421 4.72545 19.2479 5.48042 19.2587 5.58753C19.416 7.11607 20.6702 8.30245 22.1838 8.26898C23.7575 8.23402 25.0001 6.85425 25.0001 5.20967V0L22.1214 1.50325L22.1207 1.50399ZM22.1207 7.38012C21.0252 7.38012 20.1369 6.46821 20.1369 5.34356C20.1369 4.21891 21.0252 3.307 22.1207 3.307C23.2162 3.307 24.1045 4.21891 24.1045 5.34356C24.1045 6.46821 23.2162 7.38012 22.1207 7.38012Z" fill="#100C1A"/>
</svg>
